<svg id="Layer_1" data-name="Layer 1" xmlns="http://www.w3.org/2000/svg" xmlns:xlink="http://www.w3.org/1999/xlink" viewBox="0 0 39.3 20.66"><defs><style>.cls-1{font-size:6.1px;fill:#fefefe;font-family:AntipastoPro-DemiBold, AntipastoPro DemiBold;font-weight:300;letter-spacing:0.09em;}.cls-2{letter-spacing:0.08em;}.cls-3{letter-spacing:0.08em;}.cls-4{letter-spacing:0.07em;}.cls-5{letter-spacing:0.07em;}.cls-6{fill:#fbc02d;}.cls-7{fill:url(#linear-gradient);}.cls-8{fill:url(#linear-gradient-2);}</style><linearGradient id="linear-gradient" x1="22.25" y1="13.14" x2="26.72" y2="16.57" gradientUnits="userSpaceOnUse"><stop offset="0" stop-color="#fff"/><stop offset="1" stop-color="#fbc02d"/></linearGradient><linearGradient id="linear-gradient-2" x1="17.37" y1="3.13" x2="22.23" y2="7.22" gradientUnits="userSpaceOnUse"><stop offset="0" stop-color="#fff"/><stop offset="0.27" stop-color="#feecc0" stop-opacity="0.87"/><stop offset="0.63" stop-color="#fcd572" stop-opacity="0.7"/><stop offset="0.88" stop-color="#fbc640" stop-opacity="0.6"/><stop offset="1" stop-color="#fbc02d" stop-opacity="0.56"/></linearGradient></defs><title>logo</title><text class="cls-1" transform="translate(0 19.13) rotate(-0.05)">G<tspan class="cls-2" x="4.48" y="0">adget </tspan><tspan class="cls-3" x="23.55" y="0">S</tspan><tspan class="cls-4" x="27.03" y="0">t</tspan><tspan class="cls-2" x="29.5" y="0">o</tspan><tspan class="cls-5" x="33.33" y="0">r</tspan><tspan class="cls-2" x="35.75" y="0">e</tspan></text><path class="cls-6" d="M11,11.42l4.17,7.22a2.94,2.94,0,0,0,5.08,0l0-.06-4.13-7.16Z" transform="translate(-0.6 -8.22)"/><path class="cls-7" d="M24.38,11.42l-4.13,7.16,0,.06a2.94,2.94,0,0,0,5.08,0l4.17-7.22Z" transform="translate(-0.6 -8.22)"/><polygon class="cls-6" points="23.78 3.21 25.64 0 13.67 0 15.52 3.21 23.78 3.21 23.78 3.21"/><polygon class="cls-8" points="15.52 3.21 19.65 10.36 23.78 3.21 15.52 3.21"/></svg>