<?xml version="1.0" encoding="utf-8"?>
<!-- Generator: Adobe Illustrator 23.0.5, SVG Export Plug-In . SVG Version: 6.00 Build 0)  -->
<svg version="1.1" id="Layer_1" xmlns="http://www.w3.org/2000/svg" xmlns:xlink="http://www.w3.org/1999/xlink" x="0px" y="0px"
	 viewBox="0 0 40 30" style="enable-background:new 0 0 40 30;" xml:space="preserve">
<style type="text/css">
	.st0{fill:#FAA320;}
	.st1{fill:#FFFFFF;}
</style>
<ellipse transform="matrix(0.9403 -0.3404 0.3404 0.9403 -3.9118 7.7044)" class="st0" cx="20" cy="15" rx="14.9" ry="14.9"/>
<g>
	<g>
		<path class="st1" d="M24.3,8c0,2.3-1.9,4.3-4.3,4.3c-2.3,0-4.3-1.9-4.3-4.3c0-2.3,1.9-4.3,4.3-4.3C22.3,3.7,24.3,5.6,24.3,8z"/>
	</g>
	<g>
		<path class="st1" d="M20,13.7L20,13.7c-4.4,0-7.9,3.5-7.9,7.9l0,0c0,1.1,0.9,2.1,2.1,2.1h11.6c1.1,0,2.1-0.9,2.1-2.1l0,0
			C27.9,17.2,24.4,13.7,20,13.7z"/>
	</g>
</g>
</svg>
